<?xml version="1.0" encoding="UTF-8"?>
<svg id="Calque_1" xmlns="http://www.w3.org/2000/svg" version="1.1" viewBox="0 0 512 509.3">
  <!-- Generator: Adobe Illustrator 30.0.0, SVG Export Plug-In . SVG Version: 2.1.1 Build 123)  -->
  <defs>
    <style>
      .st0 {
        fill: #c14735;
      }

      .st1 {
        fill: #6b2a1a;
      }
    </style>
  </defs>
  <path class="st0" d="M346.7,502.4c-18.3,0-35.9-6.1-52.2-18.2-14.4,5-29.3,7.5-44.4,7.5-25,0-48.9-6.8-71.2-20.1-3.7.3-7,.4-10.2.4-89.2,0-161.7-88.5-161.7-197.3v-63.5C7,98.6,118.7,7,256,7s249,91.6,249,204.2-5.3,48.5-15.7,71.3c10,13.6,15.7,32.2,15.7,51.7,0,39.7-23.4,72.1-52.4,72.9-22.2,58.9-62.5,95.2-105.9,95.2Z"/>
  <path d="M256,14c133.7,0,242,88.3,242,197.2s-6,49.9-16.9,72.3c10.3,12.1,16.9,30.4,16.9,50.8,0,36.4-20.9,66-46.6,66s-2.4-.1-3.6-.3c-20.2,57-57.9,95.4-101.1,95.4s-35.6-6.9-51-19.1c-14.4,5.5-29.7,8.4-45.6,8.4-25,0-48.6-7.3-69.5-20.3-3.9.4-7.9.6-11.9.6-85.5,0-154.8-85.2-154.8-190.3v-63.5C14,102.2,122.3,14,256,14M256,0C114.8,0,0,94.7,0,211.2v63.5c0,112.7,75.7,204.3,168.7,204.3s5.5,0,8.5-.3c22.8,13.3,47.3,20,72.8,20s29.2-2.3,43.3-6.8c16.6,11.5,34.9,17.5,53.4,17.5,45.4,0,87.2-36.4,110.8-95.6,31-3.9,54.5-37.4,54.5-79.6s-5.3-38.1-14.7-52.5c9.8-22.7,14.7-46.4,14.7-70.6C512,94.7,397.2,0,256,0Z"/>
  <path class="st1" d="M498,211.2c0-4.4-.2-8.7-.6-13-.3,3.3-.7,6.6-1.4,9.9-3.9,20.6-13.6,39-27.7,55,8.3,11.7,11.9,27.6,8.8,44.1-5.6,29.3-30.7,49.2-56.1,44.3-1.2-.2-2.4-.6-3.5-.9-28.6,42.1-71.7,65.9-114.3,57.8-18-3.4-34-12.2-47.3-25-15,1.7-30.6,1.2-46.2-1.8-24.6-4.7-46.7-15.1-65.3-29.4-3.9-.4-7.8-1-11.8-1.7-58-11.1-102.2-53.4-118.7-106.3v30.5c0,105.1,69.3,190.3,154.8,190.3s7.9-.2,11.9-.6c20.9,12.9,44.5,20.3,69.5,20.3s31.2-3,45.6-8.4c15.4,12.2,32.7,19.1,51,19.1,43.2,0,81-38.4,101.1-95.4,1.2.1,2.4.3,3.6.3,25.7,0,46.6-29.5,46.6-66s-6.6-38.7-16.9-50.8c10.8-22.4,16.9-46.8,16.9-72.3Z"/>
  <path d="M178.4,471.3c-21.3-16.2-35.7-39.4-44.7-64.2,10.7,23,26.8,44.6,48.3,58.2l-3.7,5.9Z"/>
  <path d="M292.7,482.7c-21.3-16.2-35.7-39.4-44.7-64.2,10.7,23,26.8,44.6,48.3,58.2l-3.7,5.9Z"/>
  <path d="M456.6,407.9c-53.4-7.1-51.9-114.2-41.6-153.5-8.4,35.9-5.7,141.2,41.8,146.5l-.2,7Z"/>
</svg>